#!OML:ASF F:\VICON\USERDATA\INSTALL\rory3\rory3.ASF
:FULLY-SPECIFIED
:DEGREES
2091
root 1.86331 9.72815 -6.05204 -209.467 178.16 -179.094
lowerback 31.2638 0.408061 -2.10617
upperback 12.753 -0.0458417 0.201819
thorax -2.6496 -0.097963 1.44989
lowerneck -16.7621 1.64695 -9.80675
upperneck 29.3537 4.90292 1.75985
head 12.2217 1.32457 3.07754
rclavicle -2.21148e-015 -9.14409e-015
rhumerus -39.9224 26.4758 -76.9953
rradius 123.461
rwrist 53.3425
rhand -45.8796 19.2908
rfingers 7.12502
rthumb -18.6299 -9.83706
lclavicle -2.21148e-015 -9.14409e-015
lhumerus -27.8054 -27.5889 86.524
lradius 86.1872
lwrist -13.8529
lhand -37.2214 10.3324
lfingers 7.12502
lthumb -10.2882 40.0608
rfemur -114.408 -4.44447 58.0093
rtibia 98.8164
rfoot 13.7461 -3.81211
rtoes 15.8832
lfemur -63.703 10.2045 -21.7132
ltibia 90.9634
lfoot 3.57443 -16.5439
ltoes -3.92218
2092
root 1.8624 9.72879 -6.07179 -209.695 178.183 -179.187
lowerback 31.3967 0.402143 -1.86729
upperback 12.9118 0.0143643 0.205765
thorax -2.5305 -0.0612753 1.29746
lowerneck -16.9821 1.53794 -9.74039
upperneck 29.3179 4.72763 1.83706
head 12.2624 1.26408 3.07538
rclavicle -9.44227e-016 -2.98177e-015
rhumerus -39.8053 26.2284 -76.7212
rradius 124.048
rwrist 53.5369
rhand -45.8716 19.6299
rfingers 7.12502
rthumb -18.6222 -9.49873
lclavicle -9.44227e-016 -2.98177e-015
lhumerus -27.4775 -27.8715 86.2108
lradius 86.2801
lwrist -13.9041
lhand -36.3787 10.3539
lfingers 7.12502
lthumb -9.47517 40.1209
rfemur -114.647 -3.94643 58.6305
rtibia 98.5247
rfoot 13.1812 -4.73701
rtoes 18.0872
lfemur -63.45 10.0524 -21.5623
ltibia 90.8363
lfoot 3.60069 -16.4673
ltoes -3.87226
2093
root 1.86028 9.72525 -6.09441 -209.877 178.148 -179.401
lowerback 31.5496 0.28923 -1.5772
upperback 12.8903 -0.0463594 0.242154
thorax -2.6221 -0.080577 1.19089
lowerneck -16.6123 1.5822 -9.76074
upperneck 29.1279 4.69123 1.99933
head 12.1042 1.27973 3.11969
rclavicle -1.42876e-015 4.87022e-015
rhumerus -39.9917 26.3698 -76.597
rradius 124.839
rwrist 53.2533
rhand -45.4874 20.3625
rfingers 7.12502
rthumb -18.2526 -8.80109
lclavicle -1.42876e-015 4.87022e-015
lhumerus -27.6384 -28.1112 86.1398
lradius 86.3976
lwrist -13.6531
lhand -35.9838 10.4355
lfingers 7.12502
lthumb -9.09417 40.2195
rfemur -114.966 -3.48547 59.3277
rtibia 98.2099
rfoot 12.517 -5.38316
rtoes 19.7963
lfemur -63.2592 9.73105 -21.3065
ltibia 90.6761
lfoot 3.9054 -16.3065
ltoes -3.25979
2094
root 1.8584 9.72116 -6.11672 -210.075 178.04 -179.453
lowerback 31.8018 0.200803 -1.45832
upperback 12.9771 -0.125642 0.255098
thorax -2.63098 -0.115905 1.16324
lowerneck -16.8443 1.57665 -9.95466
upperneck 29.1099 4.71213 2.1868
head 12.1313 1.29195 3.23087
rclavicle -3.57812e-015 -5.96354e-016
rhumerus -39.7211 26.5886 -76.3756
rradius 125.668
rwrist 52.1081
rhand -44.5493 21.9971
rfingers 7.12502
rthumb -17.3499 -7.2485
lclavicle -3.57812e-015 -5.96354e-016
lhumerus -27.5334 -28.283 86.0017
lradius 86.5873
lwrist -13.216
lhand -35.8166 10.3398
lfingers 7.12502
lthumb -8.93285 40.1307
rfemur -115.298 -3.07222 59.9065
rtibia 97.9258
rfoot 12 -5.88609
rtoes 21.4685
lfemur -62.9878 9.42285 -21.2502
ltibia 90.4958
lfoot 4.21974 -16.1454
ltoes -2.23843
2095
root 1.85991 9.71936 -6.13509 -210.322 177.953 -179.619
lowerback 32.0888 0.0777618 -1.17897
upperback 13.0681 -0.198401 0.319332
thorax -2.6511 -0.14342 1.0985
lowerneck -16.8727 1.56487 -10.1391
upperneck 28.9757 4.72618 2.26204
head 12.0761 1.29452 3.28816
rclavicle 2.06239e-015 5.36719e-015
rhumerus -39.4534 26.5964 -75.9159
rradius 126.116
rwrist 52.3303
rhand -44.5667 22.0078
rfingers 7.12502
rthumb -17.3666 -7.23634
lclavicle 2.06239e-015 5.36719e-015
lhumerus -27.4109 -28.3351 85.9439
lradius 86.7221
lwrist -13.0983
lhand -35.6492 10.129
lfingers 7.12502
lthumb -8.77133 39.9267
rfemur -115.616 -2.77386 60.6054
rtibia 97.9684
rfoot 11.2682 -6.12303
rtoes 23.5444
lfemur -62.7444 9.10747 -21.1082
ltibia 90.4104
lfoot 4.38031 -15.9719
ltoes -1.79989
2096
root 1.86214 9.71691 -6.15067 -210.525 177.788 -179.465
lowerback 32.3084 0.0650049 -1.21686
upperback 13.105 -0.229047 0.266494
thorax -2.70278 -0.156949 1.07271
lowerneck -16.6278 1.56246 -10.1205
upperneck 28.7085 4.67175 2.26878
head 11.9238 1.28789 3.26485
rclavicle 9.93923e-017 -5.96354e-016
rhumerus -39.3805 26.5731 -75.6538
rradius 126.626
rwrist 52.381
rhand -44.3813 21.9542
rfingers 7.12502
rthumb -17.1882 -7.30564
lclavicle 9.93923e-017 -5.96354e-016
lhumerus -27.408 -28.5389 85.8456
lradius 86.9393
lwrist -13.03
lhand -35.5102 10.356
lfingers 7.12502
lthumb -8.63719 40.1593
rfemur -115.955 -2.37296 60.9328
rtibia 97.8406
rfoot 11.5132 -5.44487
rtoes 20.9948
lfemur -62.526 8.74933 -21.2826
ltibia 90.3529
lfoot 4.383 -15.7747
ltoes -2.27764
2097
root 1.86407 9.71359 -6.16976 -210.638 177.738 -179.336
lowerback 32.2717 0.0765146 -1.17163
upperback 13.2015 -0.202353 0.213526
thorax -2.57737 -0.1407 0.978341
lowerneck -16.5841 1.52528 -10.088
upperneck 28.5876 4.57024 2.3593
head 11.8709 1.2641 3.27437
rclavicle -1.2424e-015 8.44835e-015
rhumerus -39.2822 26.4135 -75.4159
rradius 127.175
rwrist 52.3955
rhand -44.219 22.189
rfingers 7.12502
rthumb -17.032 -7.08434
lclavicle -1.2424e-015 8.44835e-015
lhumerus -27.293 -28.8136 85.7365
lradius 87.0333
lwrist -13.0425
lhand -35.7201 10.0816
lfingers 7.12502
lthumb -8.83976 39.8764
rfemur -116.291 -1.76503 61.2179
rtibia 97.9494
rfoot 12.4892 -2.72531
rtoes 9.60513
lfemur -62.4404 8.45311 -21.3814
ltibia 90.2564
lfoot 4.54237 -15.5732
ltoes -2.75709
2098
root 1.86375 9.70943 -6.18932 -210.873 177.556 -179.314
lowerback 32.4532 -0.0012842 -1.13429
upperback 13.239 -0.290213 0.2029
thorax -2.61071 -0.181532 0.974782
lowerneck -16.5119 1.54192 -10.0614
upperneck 28.5489 4.56609 2.38893
head 11.8401 1.27145 3.27736
rclavicle 6.58474e-015 0
rhumerus -39.3022 26.5143 -75.1641
rradius 127.726
rwrist 52.366
rhand -44.2814 22.6309
rfingers 7.12502
rthumb -17.092 -6.63728
lclavicle 6.58474e-015 0
lhumerus -27.4057 -28.9284 85.7591
lradius 87.1521
lwrist -12.9407
lhand -35.7911 9.06508
lfingers 7.12502
lthumb -8.90824 38.857
rfemur -116.61 -1.42086 61.6991
rtibia 98.1007
rfoot 12.454 -2.99314
rtoes 9.95694
lfemur -62.1889 8.10481 -21.5126
ltibia 90.088
lfoot 4.67649 -15.3891
ltoes -2.8781
2099
root 1.8633 9.70645 -6.21145 -211.103 177.283 -179.274
lowerback 32.7263 -0.0791779 -1.07394
upperback 13.238 -0.373483 0.148216
thorax -2.7282 -0.216103 0.908434
lowerneck -16.2349 1.53833 -9.99203
upperneck 28.3937 4.4816 2.4471
head 11.7273 1.25785 3.26403
rclavicle 5.29264e-015 -6.75868e-015
rhumerus -39.389 26.5424 -74.935
rradius 128.248
rwrist 52.2741
rhand -44.2094 22.2066
rfingers 7.12502
rthumb -17.0228 -7.06755
lclavicle 5.29264e-015 -6.75868e-015
lhumerus -27.5069 -29.2038 85.6907
lradius 87.3605
lwrist -12.7293
lhand -35.5947 8.48085
lfingers 7.12502
lthumb -8.71868 38.2808
rfemur -116.981 -1.12871 62.123
rtibia 98.4329
rfoot 12.3339 -3.24453
rtoes 10.58
lfemur -61.874 7.63846 -21.6929
ltibia 89.8118
lfoot 4.8958 -15.1816
ltoes -2.58441
2100
root 1.85737 9.70289 -6.24085 -211.46 177.111 -179.205
lowerback 33.0495 -0.0751245 -1.09587
upperback 13.3468 -0.376156 0.123972
thorax -2.74065 -0.216376 0.896461
lowerneck -16.1687 1.52389 -9.88462
upperneck 28.3219 4.4156 2.45644
head 11.6917 1.24476 3.23676
rclavicle 9.93923e-017 -3.18055e-015
rhumerus -39.1808 26.4389 -74.6906
rradius 128.663
rwrist 52.1505
rhand -43.9554 21.7047
rfingers 7.12502
rthumb -16.7783 -7.59031
lclavicle 9.93923e-017 -3.18055e-015
lhumerus -27.4283 -29.4179 85.5123
lradius 87.6382
lwrist -12.7893
lhand -35.0648 8.14594
lfingers 7.12502
lthumb -8.20727 37.9665
rfemur -117.082 -0.81024 62.592
rtibia 98.7231
rfoot 12.2406 -3.41354
rtoes 8.87687
lfemur -61.4106 7.27176 -21.7864
ltibia 89.53
lfoot 5.07685 -14.9224
ltoes -2.66205
2101
root 1.84527 9.7052 -6.28687 -211.792 176.803 -178.865
lowerback 33.707 -0.0096294 -1.45713
upperback 13.193 -0.419247 0.082185
thorax -2.71068 -0.248346 0.987506
lowerneck -16.2991 1.55048 -9.84143
upperneck 28.2697 4.43352 2.52622
head 11.6937 1.26821 3.25942
rclavicle 6.08778e-015 -4.96962e-015
rhumerus -38.7141 26.3681 -74.35
rradius 129.058
rwrist 51.9718
rhand -43.4928 21.5603
rfingers 7.12502
rthumb -16.3329 -7.77193
lclavicle 6.08778e-015 -4.96962e-015
lhumerus -27.2495 -29.6631 85.234
lradius 87.9448
lwrist -12.889
lhand -34.8576 7.88467
lfingers 7.12502
lthumb -8.00733 37.713
rfemur -117.416 -0.503519 62.7333
rtibia 99.3957
rfoot 12.4189 -3.34441
rtoes 5.22585
lfemur -60.8988 6.93315 -22.2282
ltibia 89.1932
lfoot 5.2476 -14.6253
ltoes -2.42599
2102
root 1.83694 9.70261 -6.31153 -212.106 176.715 -178.89
lowerback 34.0012 -0.0501665 -1.43909
upperback 13.2935 -0.465428 0.108325
thorax -2.7059 -0.271588 1.01992
lowerneck -16.3289 1.57227 -9.94538
upperneck 28.1512 4.46024 2.63867
head 11.6448 1.28908 3.31891
rclavicle -6.60959e-015 4.57205e-015
rhumerus -38.3303 26.3827 -73.9831
rradius 129.445
rwrist 51.8175
rhand -43.6014 21.9667
rfingers 7.12502
rthumb -16.4374 -7.35693
lclavicle -6.60959e-015 4.57205e-015
lhumerus -27.2038 -29.9507 85.1043
lradius 88.197
lwrist -12.5868
lhand -34.8942 7.85793
lfingers 7.12502
lthumb -8.04265 37.6849
rfemur -117.295 -0.196564 63.3834
rtibia 99.5781
rfoot 12.055 -3.84426
rtoes 7.52381
lfemur -60.5615 6.70794 -22.2107
ltibia 89.0813
lfoot 5.15192 -14.6104
ltoes -3.02173
2103
root 1.83381 9.69624 -6.32262 -212.306 176.762 -179.08
lowerback 34.1795 -0.127967 -1.16101
upperback 13.3376 -0.474263 0.161511
thorax -2.72407 -0.267141 0.931564
lowerneck -16.2558 1.54964 -10.0494
upperneck 27.9842 4.40603 2.76254
head 11.5621 1.27781 3.3675
rclavicle 3.42904e-015 5.36719e-015
rhumerus -38.0353 26.3484 -73.5598
rradius 129.863
rwrist 51.6324
rhand -43.6907 22.0862
rfingers 7.12502
rthumb -16.5234 -7.23023
lclavicle 3.42904e-015 5.36719e-015
lhumerus -27.2216 -30.1926 85.0711
lradius 88.3675
lwrist -12.4101
lhand -34.9906 7.83364
lfingers 7.12502
lthumb -8.13572 37.657
rfemur -117.468 0.234554 64.1326
rtibia 100.139
rfoot 12.0719 -4.83588
rtoes 10.0626
lfemur -60.4468 6.51254 -21.9658
ltibia 89.0582
lfoot 5.26437 -14.4155
ltoes -2.61262
2104
root 1.82773 9.68986 -6.32685 -212.647 176.964 -179.422
lowerback 34.3747 -0.218494 -0.701832
upperback 13.4321 -0.441677 0.213921
thorax -2.69524 -0.235974 0.733619
lowerneck -16.079 1.53569 -10.0799
upperneck 27.8597 4.31207 2.95156
head 11.4766 1.26328 3.4215
rclavicle 1.98785e-015 -4.77083e-015
rhumerus -37.8231 26.2607 -73.2499
rradius 130.3
rwrist 51.4324
rhand -43.7882 21.9418
rfingers 7.12502
rthumb -16.6173 -7.3668
lclavicle 1.98785e-015 -4.77083e-015
lhumerus -27.2115 -30.4276 84.905
lradius 88.4988
lwrist -12.566
lhand -35.1137 7.71143
lfingers 7.12502
lthumb -8.25454 37.5302
rfemur -117.445 0.639101 65.09
rtibia 100.673
rfoot 12.4511 -5.13093
rtoes 9.52786
lfemur -60.222 6.38481 -21.437
ltibia 89.1215
lfoot 5.25851 -14.3879
ltoes -2.75953
2105
root 1.82161 9.68911 -6.34625 -213.059 177.024 -179.61
lowerback 34.8268 -0.299073 -0.426085
upperback 13.4402 -0.455511 0.225897
thorax -2.84618 -0.23174 0.606758
lowerneck -15.8531 1.53615 -10.0944
upperneck 27.8267 4.24941 3.08125
head 11.4175 1.25285 3.45688
rclavicle -7.92654e-015 7.55382e-015
rhumerus -37.7315 26.2241 -73.0642
rradius 130.674
rwrist 51.2792
rhand -43.9513 22.278
rfingers 7.12502
rthumb -16.7743 -7.01735
lclavicle -7.92654e-015 7.55382e-015
lhumerus -27.2661 -30.6141 84.7826
lradius 88.6709
lwrist -12.629
lhand -34.9674 7.74773
lfingers 7.12502
lthumb -8.11327 37.572
rfemur -117.347 0.863337 65.8044
rtibia 101.297
rfoot 12.3183 -5.49514
rtoes 10.2224
lfemur -59.7861 6.16537 -21.1289
ltibia 88.9931
lfoot 5.42113 -14.2396
ltoes -2.48883
